<svg height="512pt" viewBox="0 -27 512 512" width="512pt" xmlns="http://www.w3.org/2000/svg"><path d="m461.863281 0h-411.726562c-27.644531 0-50.136719 22.234375-50.136719 49.566406v285.546875c0 27.332031 22.492188 49.570313 50.136719 49.570313h148.710937v42.339844h-74.398437c-8.375 0-15.160157 6.789062-15.160157 15.160156s6.789063 15.15625 15.160157 15.15625c0 0 264.1875 0 263.101562 0 8.375 0 15.160157-6.785156 15.160157-15.15625s-6.789063-15.160156-15.160157-15.160156h-74.398437v-42.339844h148.710937c27.644531 0 50.136719-22.238282 50.136719-49.570313v-285.546875c0-27.332031-22.492188-49.566406-50.136719-49.566406zm-179.027343 427.023438h-53.675782v-42.339844h53.675782zm198.847656-91.910157c0 10.617188-8.894532 19.253907-19.824219 19.253907h-411.722656c-10.929688 0-19.820313-8.636719-19.820313-19.253907v-33.042969h451.367188zm-352.105469-148h23.28125c22.8125 0 41.375 18.5625 41.375 41.375v43.113281h-106.03125v-43.113281c0-22.8125 18.558594-41.375 41.375-41.375zm-13.191406-63.617187c0-13.691406 11.136719-24.832032 24.832031-24.832032 13.691406 0 24.832031 11.140626 24.832031 24.832032s-11.140625 24.832031-24.832031 24.832031c-13.695312 0-24.832031-11.140625-24.832031-24.832031zm365.296875 148.257812h-257.132813v-43.265625c0-29.789062-18.269531-55.382812-44.183593-66.195312 9.882812-9.972657 16-23.683594 16-38.796875 0-30.410156-24.742188-55.148438-55.148438-55.148438-30.410156 0-55.152344 24.738282-55.152344 55.148438 0 15.117187 6.117188 28.828125 16 38.800781-25.914062 10.808594-44.179687 36.402344-44.179687 66.191406v43.265625h-27.570313v-222.1875c0-10.613281 8.890625-19.25 19.820313-19.25h411.726562c10.929688 0 19.820313 8.636719 19.820313 19.25zm0 0"/><path d="m410.609375 49.988281h-113.621094c-23.84375 0-43.246093 19.402344-43.246093 43.246094v82.835937c0 23.847657 19.402343 43.246094 43.246093 43.246094h113.621094c23.847656 0 43.246094-19.402344 43.246094-43.246094v-82.835937c0-23.84375-19.398438-43.246094-43.246094-43.246094zm12.929687 126.085938c0 7.125-5.800781 12.925781-12.929687 12.925781h-113.621094c-7.128906 0-12.925781-5.800781-12.925781-12.925781v-82.839844c0-7.128906 5.796875-12.925781 12.925781-12.925781h113.621094c7.128906 0 12.929687 5.796875 12.929687 12.925781zm0 0"/><path d="m387.675781 88.179688c-8.371093 0-15.15625 6.785156-15.15625 15.15625v27.976562l-42.304687-39.105469c-4.425782-4.089843-10.847656-5.171875-16.367188-2.757812-5.515625 2.414062-9.082031 7.863281-9.082031 13.886719v62.632812c0 8.375 6.785156 15.160156 15.15625 15.160156 8.375 0 15.160156-6.789062 15.160156-15.160156v-27.976562l42.304688 39.109374c2.855469 2.640626 6.546875 4.027344 10.292969 4.027344 2.050781 0 4.117187-.414062 6.070312-1.269531 5.519531-2.414063 9.085938-7.867187 9.085938-13.890625v-62.632812c0-8.371094-6.789063-15.15625-15.160157-15.15625zm0 0"/></svg>